PathFileType        4      (X/Y/Z)      C:\Users\pc\Desktop\IMUTRC\Sujet_05\Sujet_05_velo_60.trc         
DataRate	CameraRate	NumFrames	NumMarkers	Units	OrigDataRate	OrigDataStartFrame	OrigNumFrames
60.0	60.0	4	64	mm	60.0	363	966
Frame#	Time	pHipOrigin			pRightASI			pLeftASI			pRightCSI			pLeftCSI			pRightIschialTub			pLeftIschialTub			pSacrum			pL5SpinalProcess			pL3SpinalProcess			pT12SpinalProcess			pIJ			pT4SpinalProcess			pT8SpinalProcess			pPX			pC7SpinalProcess			pTopOfHead			pRightAuricularis			pLeftAuricularis			pBackOfHead			pRightAcromion			pLeftAcromion			pRightArmLatEpicondyle			pRightArmMedEpicondyle			pLeftArmLatEpicondyle			pLeftArmMedEpicondyle			pRightUlnarStyloid			pRightRadialStyloid			pRightOlecranon			pLeftUlnarStyloid			pLeftRadialStyloid			pLeftOlecranon			pRightTopOfHand			pRightPinky			pRightBallHand			pLeftTopOfHand			pLeftPinky			pLeftBallHand			pRightGreaterTrochanter			pRightKneeLatEpicondyle			pRightKneeMedEpicondyle			pRightPatella			pLeftGreaterTrochanter			pLeftKneeLatEpicondyle			pLeftKneeMedEpicondyle			pLeftPatella			pRightTibialTub			pRightLatMalleolus			pRightMedMalleolus			pLeftTibialTub			pLeftLatMalleolus			pLeftMedMalleolus			pRightHeelFoot			pRightFirstMetatarsal			pRightFifthMetatarsal			pRightPivotFoot			pRightHeelCenter			pRightToe			pLeftHeelFoot			pLeftFirstMetatarsal			pLeftFifthMetatarsal			pLeftPivotFoot			pLeftHeelCenter			pLeftToe			
		X1	Y1	Z1	X2	Y2	Z2	X3	Y3	Z3	X4	Y4	Z4	X5	Y5	Z5	X6	Y6	Z6	X7	Y7	Z7	X8	Y8	Z8	X9	Y9	Z9	X10	Y10	Z10	X11	Y11	Z11	X12	Y12	Z12	X13	Y13	Z13	X14	Y14	Z14	X15	Y15	Z15	X16	Y16	Z16	X17	Y17	Z17	X18	Y18	Z18	X19	Y19	Z19	X20	Y20	Z20	X21	Y21	Z21	X22	Y22	Z22	X23	Y23	Z23	X24	Y24	Z24	X25	Y25	Z25	X26	Y26	Z26	X27	Y27	Z27	X28	Y28	Z28	X29	Y29	Z29	X30	Y30	Z30	X31	Y31	Z31	X32	Y32	Z32	X33	Y33	Z33	X34	Y34	Z34	X35	Y35	Z35	X36	Y36	Z36	X37	Y37	Z37	X38	Y38	Z38	X39	Y39	Z39	X40	Y40	Z40	X41	Y41	Z41	X42	Y42	Z42	X43	Y43	Z43	X44	Y44	Z44	X45	Y45	Z45	X46	Y46	Z46	X47	Y47	Z47	X48	Y48	Z48	X49	Y49	Z49	X50	Y50	Z50	X51	Y51	Z51	X52	Y52	Z52	X53	Y53	Z53	X54	Y54	Z54	X55	Y55	Z55	X56	Y56	Z56	X57	Y57	Z57	X58	Y58	Z58	X59	Y59	Z59	X60	Y60	Z60	X61	Y61	Z61	X62	Y62	Z62	X63	Y63	Z63	X64	Y64	Z64	
363	6.033	0.0	1249.96063	7.653801422948546E-14	59.18620000000001	1350.61428	120.13500000000009	60.484959999999994	1337.53394	-129.41183999999993	15.956150000000004	1410.6354	95.73693000000009	17.069369999999992	1399.7815	-111.87861999999991	-50.74428	1198.38143	54.45502000000007	-50.18767	1192.9081	-49.35275999999993	-62.89694	1267.95769	-1.2987599999999184	-29.3148	1369.63179	-6.122709999999914	28.94372	1475.29493	-5.195029999999911	90.63467	1566.95005	-1.6698299999999096	351.59201	1583.83389	14.935700000000077	243.60966	1695.06313	11.874350000000089	166.33364	1645.43207	4.73119000000009	248.89746	1511.66012	5.195030000000077	296.02378	1726.78991	17.16214000000009	581.56473	1728.64527	24.21254000000007	475.71605	1709.25669	95.08755000000006	477.20035	1720.38889	-50.92981999999992	468.8512	1771.68978	26.34621000000008	273.3883	1644.31885	206.7806300000001	298.25022	1662.87252	-183.95961999999992	352.24139	1396.2563	187.48482000000007	336.65631	1391.71066	132.47319000000005	384.52477	1422.78805	-190.36063999999993	363.00252	1409.89325	-138.78143999999995	457.62623	1182.23974	186.74267000000006	499.18644	1208.86426	193.88583000000006	321.164	1386.14456	158.17002000000005	481.56046	1203.48369	-201.95667999999995	523.77005	1229.45883	-207.61554999999996	350.38603	1409.1511	-162.99397999999994	512.17401	1122.21862	351.12817	484.34351	1118.87896	269.49203	487.03379	1162.10901	211.32628000000005	600.1184	1155.42969	-343.05733	541.39604	1146.15286	-280.53146	519.59548	1184.65172	-223.01508999999993	30.14971000000001	1240.21995	147.87274000000008	365.13619	1108.67445	109.83772000000005	364.95065	1113.40563	39.61208000000005	377.10331	1148.6576	74.95682000000004	0.09276999999999107	1206.91612	-145.9245999999999	175.98154	892.15314	-114.75443999999996	194.16414	902.72873	-47.49738999999996	217.63453	917.66443	-90.63466999999996	390.27641	1066.46485	70.41117000000004	156.50019	771.36876	89.33591000000003	156.03635	773.96627	29.778640000000035	237.39419	870.53811	-87.10946999999996	185.07284	499.74305	-129.78290999999996	191.10278	496.86724	-70.41116999999998	69.94733	739.17814	69.66902000000005	182.01149	626.83568	19.57412000000003	190.82448	627.57783	97.49953000000002	202.23498	611.71444	55.84654000000002	99.9115	714.13069	66.51490000000004	260.02966	555.5896	49.81660000000002	125.05172	429.88849	-105.29206999999998	273.85214	382.20557	-47.96122999999999	282.94344	379.70082	-125.79386999999998	299.27067	374.13472	-83.12042999999998	162.80844	420.70443	-100.56087999999998	375.52625	349.45834	-73.47253	
364	6.05	0.0	1249.96063	7.653801422948546E-14	59.093430000000005	1350.79982	120.04223000000009	60.577729999999995	1337.25564	-129.50459999999993	16.048920000000006	1410.82093	95.45862000000008	17.25490999999999	1399.5032	-112.15691999999991	-50.83705	1198.4742	54.547780000000074	-50.18767	1192.81533	-49.25998999999993	-62.89694	1268.05046	-1.3915299999999184	-29.22203	1369.63179	-6.308249999999915	29.03649	1475.29493	-5.380559999999911	90.82021	1566.85728	-1.7625999999999096	351.77755	1583.46282	14.842930000000077	243.88797	1694.8776	11.967120000000088	166.61194	1645.3393	4.73119000000009	249.083	1511.38182	4.916720000000077	296.39485	1726.5116	17.34768000000009	581.84304	1728.5525	25.41853000000007	475.62329	1709.07115	95.82970000000007	477.75696	1720.20335	-50.18766999999992	469.03673	1771.50425	27.088360000000083	273.3883	1643.85501	206.7806300000001	298.62129	1662.96529	-183.8668499999999	352.5197	1395.79246	186.92821000000006	336.84185	1391.43235	131.91658000000007	384.71031	1422.78805	-190.82447999999994	363.18806	1409.80048	-139.24527999999995	457.81176	1181.7759	185.81499000000005	499.37198	1208.49318	193.05092000000005	321.34953	1385.77348	157.61341000000004	481.56046	1203.48369	-202.69882999999993	523.77005	1229.36606	-208.45045999999994	350.57156	1409.1511	-163.45781999999994	512.54509	1121.66201	350.10772	484.71458	1118.32235	268.47158	487.3121	1161.73794	210.39860000000004	600.02563	1155.33692	-343.89224	541.30327	1146.15286	-281.36638	519.59548	1184.55895	-223.85000999999994	30.98463000000001	1241.61148	147.77997000000008	369.77461	1120.8271	107.98235000000004	369.03246	1125.37275	37.66395000000005	380.16466	1161.08856	72.82315000000004	-0.834920000000009	1207.10166	-146.11013999999992	168.93115	888.81348	-117.44471999999996	187.67035	898.64692	-50.187669999999954	211.23351	913.39709	-93.41771999999996	395.84251	1079.26688	68.37027000000005	170.78652	777.58424	88.40823000000003	169.9516	780.08898	28.758190000000035	230.06549	865.80693	-89.98528999999996	170.41544	496.31063	-134.14301999999998	176.35262	493.06373	-74.86404999999999	85.43964	742.2395	68.55580000000005	201.58561	634.16438	18.275360000000028	210.3986	634.9993	96.20077000000003	222.36571	619.69252	54.45502000000002	116.23873	718.30527	65.40168000000003	282.10853	565.79411	48.33231000000002	108.07512	428.4042	-109.28110999999997	255.29848	376.08286	-51.857499999999995	264.20424	372.92873	-129.69014	280.34593	366.99156	-87.01669999999999	145.55353	418.01415	-104.54991999999999	355.76659	339.81043	-77.27603000000002	
365	6.067	0.0	1249.96063	7.653801422948546E-14	59.18620000000001	1350.89259	119.94947000000009	60.577729999999995	1337.16287	-129.59736999999993	16.141690000000008	1410.9137	95.36585000000008	17.25490999999999	1399.41043	-112.24968999999992	-50.83705	1198.56697	54.64055000000007	-50.28044	1192.81533	-49.16721999999993	-62.89694	1268.05046	-1.2987599999999184	-29.12926	1369.63179	-6.401019999999915	29.22203	1475.29493	-5.473329999999911	91.09851	1566.76452	-1.7625999999999096	352.05586	1583.09174	14.564630000000076	244.35181	1694.59929	12.059880000000089	166.98301	1645.15376	4.7311900000000895	249.26853	1511.19628	4.638420000000077	296.76592	1726.14053	17.34768000000009	582.21411	1728.2742	26.067900000000073	475.80882	1708.60731	96.10800000000008	478.40634	1720.01782	-49.81659999999992	469.40781	1771.13317	27.459430000000083	273.75938	1643.2984	206.6878600000001	298.99236	1662.96529	-183.95961999999992	352.89077	1395.32862	186.37160000000006	337.21292	1391.06128	131.45274000000006	384.98862	1422.69528	-191.28831999999994	363.55913	1409.70771	-139.70911999999996	458.27561	1181.40483	184.98007000000007	499.83582	1208.02934	192.12323000000006	321.72061	1385.40241	157.05680000000007	481.746	1203.29816	-203.53373999999994	523.95559	1229.18052	-209.19260999999995	350.84987	1409.05834	-163.92165999999995	513.1017	1121.1054	349.08727	485.17843	1117.85851	267.5439	487.77594	1161.2741	209.47091000000006	600.1184	1155.24415	-344.81992	541.39604	1146.06009	-282.20129	519.68825	1184.46618	-224.59214999999995	31.81954000000001	1242.81747	147.59443000000007	373.67088	1131.681	105.84868000000004	372.27935	1135.94834	35.53027000000005	382.66941	1172.12799	70.50394000000004	-1.5770600000000088	1207.37996	-146.29566999999992	164.3855	886.86534	-119.85669999999996	183.40301	896.04941	-52.692419999999956	207.05894	910.70681	-95.92245999999996	400.94477	1090.86293	66.05106000000005	186.09329	781.94435	87.29501000000003	184.79454	784.44909	27.64497000000004	224.87046	862.28173	-92.76833999999995	155.75805	494.45526	-137.76098999999996	161.88076	490.93006	-78.48201999999999	102.04518	743.16718	67.44258000000005	222.36571	640.10155	16.605530000000027	231.36424	641.12201	94.53094000000003	243.7952	626.37184	52.69242000000002	133.86472	720.53171	64.10292000000003	305.76445	574.97818	46.29140000000002	91.37682	428.68251	-112.43522999999998	237.02311	371.81551	-55.19715999999999	245.5578	368.01201	-133.0298	261.69949	361.79653	-90.35635999999998	128.48415	416.99369	-107.70403999999999	336.19247	332.20343	-80.70846	
366	6.083	0.0	1249.96063	7.653801422948546E-14	59.464510000000004	1350.79982	119.85670000000009	60.484959999999994	1337.16287	-129.69013999999993	16.327230000000007	1410.82093	95.36585000000008	17.25490999999999	1399.41043	-112.24968999999992	-50.83705	1198.56697	54.64055000000007	-50.37321	1192.9081	-49.16721999999993	-62.89694	1268.14323	-1.2987599999999184	-29.03649	1369.72456	-6.308249999999915	29.40756	1475.29493	-5.380559999999911	91.37682	1566.67175	-1.7625999999999096	352.33416	1582.72067	14.193560000000076	244.81565	1694.32099	11.967120000000088	167.35409	1644.96823	4.7311900000000895	249.45407	1510.91797	4.360110000000077	297.22977	1725.76945	17.254910000000088	582.67795	1727.90313	26.16067000000007	476.1799	1707.95793	95.92246000000007	479.05571	1719.73951	-49.909369999999925	469.87165	1770.66933	27.459430000000083	274.40875	1642.83456	206.5023300000001	299.36344	1662.77975	-184.05238999999992	353.35461	1394.95755	185.81499000000005	337.67676	1390.6902	130.89613000000006	385.35969	1422.60251	-191.75215999999995	364.02297	1409.61495	-140.17295999999993	458.73945	1180.94098	184.14516000000006	500.29966	1207.65827	191.28832000000006	322.18445	1384.93857	156.50019000000006	482.0243	1203.20539	-204.27588999999995	524.32667	1229.08775	-210.02751999999995	351.31371	1408.96557	-164.38549999999995	513.75107	1120.54879	348.15958	485.8278	1117.3019	266.61621	488.33255	1160.81025	208.54323000000005	600.30394	1155.15139	-345.65484	541.67434	1145.96732	-283.03621	520.05932	1184.37341	-225.42706999999993	32.561690000000006	1243.65238	147.4088900000001	376.825	1141.14337	103.52947000000005	374.87687	1145.31794	33.21107000000005	384.61754	1181.7759	67.99919000000004	-2.133670000000009	1207.65827	-146.48120999999992	161.97352	886.1232	-122.26866999999996	181.45488	894.84342	-55.10438999999996	204.92527	909.59359	-98.33443999999996	405.39765	1101.25298	63.45355000000004	202.14222	784.63463	85.90348000000003	200.37962	787.23214	26.25344000000004	221.62357	859.96252	-95.55138999999996	141.10065	494.54803	-140.82233999999997	147.50166	490.65176	-81.63613999999998	119.76393	742.2395	66.23660000000002	244.25904	644.6472	14.657400000000026	253.44311	645.76042	92.49004000000002	266.33791	631.7524	50.65151000000002	152.51115	720.99555	62.71140000000003	330.44083	583.14179	43.87943000000001	74.86405	430.63064	-115.12550999999998	218.74775	369.31077	-58.35128999999999	226.91136	365.04342	-136.18392999999998	242.96029	358.45687	-93.60325999999999	111.60031	417.82861	-110.57985999999997	316.52558	326.45179	-84.23365	
